<svg width="28" height="28" viewBox="0 0 28 28" fill="none" xmlns="http://www.w3.org/2000/svg">
<path d="M14.0001 18.6667C15.4584 18.6667 16.698 18.1563 17.7188 17.1354C18.7397 16.1146 19.2501 14.875 19.2501 13.4167C19.2501 11.9583 18.7397 10.7188 17.7188 9.69792C16.698 8.67709 15.4584 8.16667 14.0001 8.16667C12.5417 8.16667 11.3022 8.67709 10.2813 9.69792C9.2605 10.7188 8.75008 11.9583 8.75008 13.4167C8.75008 14.875 9.2605 16.1146 10.2813 17.1354C11.3022 18.1563 12.5417 18.6667 14.0001 18.6667ZM14.0001 16.5667C13.1251 16.5667 12.3813 16.2604 11.7688 15.6479C11.1563 15.0354 10.8501 14.2917 10.8501 13.4167C10.8501 12.5417 11.1563 11.7979 11.7688 11.1854C12.3813 10.5729 13.1251 10.2667 14.0001 10.2667C14.8751 10.2667 15.6188 10.5729 16.2313 11.1854C16.8438 11.7979 17.1501 12.5417 17.1501 13.4167C17.1501 14.2917 16.8438 15.0354 16.2313 15.6479C15.6188 16.2604 14.8751 16.5667 14.0001 16.5667ZM14.0001 22.1667C11.1612 22.1667 8.57508 21.3743 6.24175 19.7896C3.90841 18.2049 2.21675 16.0806 1.16675 13.4167C2.21675 10.7528 3.90841 8.62848 6.24175 7.04376C8.57508 5.45903 11.1612 4.66667 14.0001 4.66667C16.839 4.66667 19.4251 5.45903 21.7584 7.04376C24.0917 8.62848 25.7834 10.7528 26.8334 13.4167C25.7834 16.0806 24.0917 18.2049 21.7584 19.7896C19.4251 21.3743 16.839 22.1667 14.0001 22.1667ZM14.0001 19.8333C16.1973 19.8333 18.2147 19.2549 20.0522 18.0979C21.8897 16.941 23.2945 15.3806 24.2667 13.4167C23.2945 11.4528 21.8897 9.89237 20.0522 8.73542C18.2147 7.57848 16.1973 7.00001 14.0001 7.00001C11.8029 7.00001 9.7855 7.57848 7.948 8.73542C6.1105 9.89237 4.70564 11.4528 3.73341 13.4167C4.70564 15.3806 6.1105 16.941 7.948 18.0979C9.7855 19.2549 11.8029 19.8333 14.0001 19.8333Z" fill="#938888"/>
</svg>
