<svg width="23" height="21" viewBox="0 0 23 21" fill="none" xmlns="http://www.w3.org/2000/svg">
<path d="M2.3 21C1.6675 21 1.12604 20.7715 0.675625 20.3146C0.225208 19.8576 0 19.3083 0 18.6667V4.66667C0 4.025 0.225208 3.47569 0.675625 3.01875C1.12604 2.56181 1.6675 2.33333 2.3 2.33333H13.915C13.8383 2.72222 13.8 3.11111 13.8 3.5C13.8 3.88889 13.8383 4.27778 13.915 4.66667H2.3L11.5 10.5L15.6975 7.84583C15.9658 8.09861 16.2581 8.31736 16.5744 8.50208C16.8906 8.68681 17.2213 8.84722 17.5662 8.98333L11.5 12.8333L2.3 7V18.6667H20.7V9.21667C21.1408 9.11944 21.5529 8.98333 21.9363 8.80833C22.3196 8.63333 22.6742 8.41944 23 8.16667V18.6667C23 19.3083 22.7748 19.8576 22.3244 20.3146C21.874 20.7715 21.3325 21 20.7 21H2.3ZM19.55 7C18.5917 7 17.7771 6.65972 17.1063 5.97917C16.4354 5.29861 16.1 4.47222 16.1 3.5C16.1 2.52778 16.4354 1.70139 17.1063 1.02083C17.7771 0.340278 18.5917 0 19.55 0C20.5083 0 21.3229 0.340278 21.9937 1.02083C22.6646 1.70139 23 2.52778 23 3.5C23 4.47222 22.6646 5.29861 21.9937 5.97917C21.3229 6.65972 20.5083 7 19.55 7Z" fill="#938888"/>
</svg>
