<svg width="425" height="266" viewBox="0 0 425 266" fill="none" xmlns="http://www.w3.org/2000/svg">
<path fill-rule="evenodd" clip-rule="evenodd" d="M42.4387 20.4615C42.4387 9.16094 51.5997 0 62.9003 0H284.946C296.246 0 305.407 9.16094 305.407 20.4615V110.644H403.926C415.227 110.644 424.387 119.805 424.387 131.105C424.387 142.406 415.227 151.567 403.926 151.567H305.407V242.507C305.407 243.017 305.389 243.522 305.352 244.023C305.389 244.523 305.407 245.029 305.407 245.538C305.407 256.839 296.246 266 284.946 266H62.9003C51.5997 266 42.4387 256.839 42.4387 245.538C42.4387 234.238 51.5997 225.077 62.9003 225.077H264.484V151.567H20.4616C9.16096 151.567 0 142.406 0 131.105C0 119.805 9.16094 110.644 20.4615 110.644H264.484V40.9231H62.9003C51.5997 40.9231 42.4387 31.7621 42.4387 20.4615Z" fill="url(#paint0_linear_6_184)"/>
<defs>
<linearGradient id="paint0_linear_6_184" x1="-121.632" y1="132.621" x2="424.387" y2="132.621" gradientUnits="userSpaceOnUse">
<stop stop-color="#8E7F9A"/>
<stop offset="1" stop-color="#50167D"/>
</linearGradient>
</defs>
</svg>
